<svg width="24" height="24" viewBox="0 0 24 24" fill="none" xmlns="http://www.w3.org/2000/svg">
<path d="M18.75 15.7499V5.99995C18.75 5.80104 18.671 5.61027 18.5303 5.46962C18.3897 5.32897 18.1989 5.24995 18 5.24995H8.24999C8.05108 5.24995 7.86031 5.32897 7.71966 5.46962C7.57901 5.61027 7.49999 5.80104 7.49999 5.99995C7.49999 6.19886 7.57901 6.38963 7.71966 6.53028C7.86031 6.67093 8.05108 6.74995 8.24999 6.74995H16.1897L5.46936 17.4693C5.32863 17.6101 5.24957 17.8009 5.24957 17.9999C5.24957 18.199 5.32863 18.3898 5.46936 18.5306C5.6101 18.6713 5.80097 18.7504 5.99999 18.7504C6.19901 18.7504 6.38988 18.6713 6.53062 18.5306L17.25 7.81026V15.7499C17.25 15.9489 17.329 16.1396 17.4697 16.2803C17.6103 16.4209 17.8011 16.4999 18 16.4999C18.1989 16.4999 18.3897 16.4209 18.5303 16.2803C18.671 16.1396 18.75 15.9489 18.75 15.7499Z" fill="white"/>
</svg>
