<svg width="24" height="24" viewBox="0 0 24 24" fill="none" xmlns="http://www.w3.org/2000/svg">
<path d="M18.75 15.75V6.00001C18.75 5.8011 18.671 5.61033 18.5303 5.46968C18.3897 5.32903 18.1989 5.25001 18 5.25001H8.24999C8.05108 5.25001 7.86031 5.32903 7.71966 5.46968C7.57901 5.61033 7.49999 5.8011 7.49999 6.00001C7.49999 6.19892 7.57901 6.38969 7.71966 6.53034C7.86031 6.67099 8.05108 6.75001 8.24999 6.75001H16.1897L5.46936 17.4694C5.32863 17.6101 5.24957 17.801 5.24957 18C5.24957 18.199 5.32863 18.3899 5.46936 18.5306C5.6101 18.6714 5.80097 18.7504 5.99999 18.7504C6.19901 18.7504 6.38988 18.6714 6.53062 18.5306L17.25 7.81032V15.75C17.25 15.9489 17.329 16.1397 17.4697 16.2803C17.6103 16.421 17.8011 16.5 18 16.5C18.1989 16.5 18.3897 16.421 18.5303 16.2803C18.671 16.1397 18.75 15.9489 18.75 15.75Z" fill="white"/>
</svg>
