<svg width="80" height="80" viewBox="0 0 80 80" fill="none" xmlns="http://www.w3.org/2000/svg">
<path d="M67.5007 27.75V22.5C67.5007 19.1848 66.1837 16.0054 63.8395 13.6612C61.4953 11.317 58.3159 10 55.0007 10H25.0007C21.6855 10 18.5061 11.317 16.1619 13.6612C13.8177 16.0054 12.5007 19.1848 12.5007 22.5V27.75C9.67498 28.3238 7.13452 29.8568 5.30976 32.0894C3.485 34.3219 2.48817 37.1166 2.48817 40C2.48817 42.8834 3.485 45.6781 5.30976 47.9106C7.13452 50.1432 9.67498 51.6762 12.5007 52.25V62.5C12.5007 63.8261 13.0275 65.0979 13.9652 66.0355C14.9029 66.9732 16.1746 67.5 17.5007 67.5H62.5007C63.8268 67.5 65.0986 66.9732 66.0362 66.0355C66.9739 65.0979 67.5007 63.8261 67.5007 62.5V52.25C70.3264 51.6762 72.8669 50.1432 74.6917 47.9106C76.5164 45.6781 77.5132 42.8834 77.5132 40C77.5132 37.1166 76.5164 34.3219 74.6917 32.0894C72.8669 29.8568 70.3264 28.3238 67.5007 27.75ZM25.0007 15H55.0007C56.9898 15 58.8975 15.7902 60.304 17.1967C61.7105 18.6032 62.5007 20.5109 62.5007 22.5V27.75C59.6792 28.3301 57.144 29.8653 55.3224 32.0968C53.5008 34.3282 52.5042 37.1195 52.5007 40H27.5007C27.4972 37.1195 26.5006 34.3282 24.6791 32.0968C22.8575 29.8653 20.3222 28.3301 17.5007 27.75V22.5C17.5007 20.5109 18.2909 18.6032 19.6974 17.1967C21.1039 15.7902 23.0116 15 25.0007 15ZM65.1226 47.5H65.0007C64.3377 47.5 63.7018 47.7634 63.2329 48.2322C62.7641 48.7011 62.5007 49.337 62.5007 50V62.5H17.5007V50C17.5007 49.337 17.2373 48.7011 16.7685 48.2322C16.2996 47.7634 15.6637 47.5 15.0007 47.5H14.8788C13.4009 47.476 11.963 47.0158 10.7458 46.1772C9.52855 45.3386 8.58625 44.1591 8.03724 42.7867C7.48822 41.4143 7.35697 39.9103 7.65998 38.4635C7.96299 37.0168 8.68673 35.6919 9.74032 34.6551C10.7939 33.6184 12.1303 32.9161 13.5818 32.6364C15.0332 32.3568 16.5349 32.5123 17.8983 33.0833C19.2616 33.6544 20.4259 34.6156 21.2447 35.8462C22.0635 37.0768 22.5005 38.5219 22.5007 40V52.5C22.5007 53.163 22.7641 53.7989 23.2329 54.2678C23.7018 54.7366 24.3377 55 25.0007 55C25.6637 55 26.2996 54.7366 26.7685 54.2678C27.2373 53.7989 27.5007 53.163 27.5007 52.5V45H52.5007V52.5C52.5007 53.163 52.7641 53.7989 53.2329 54.2678C53.7018 54.7366 54.3377 55 55.0007 55C55.6637 55 56.2996 54.7366 56.7685 54.2678C57.2373 53.7989 57.5007 53.163 57.5007 52.5V40C57.5009 38.5219 57.9379 37.0768 58.7567 35.8462C59.5756 34.6156 60.7398 33.6544 62.1031 33.0833C63.4665 32.5123 64.9682 32.3568 66.4196 32.6364C67.8711 32.9161 69.2075 33.6184 70.2611 34.6551C71.3147 35.6919 72.0384 37.0168 72.3414 38.4635C72.6444 39.9103 72.5132 41.4143 71.9642 42.7867C71.4152 44.1591 70.4729 45.3386 69.2556 46.1772C68.0384 47.0158 66.6005 47.476 65.1226 47.5Z" fill="url(#paint0_linear_42_565)"/>
<defs>
<linearGradient id="paint0_linear_42_565" x1="40.0007" y1="10" x2="40.0007" y2="67.5" gradientUnits="userSpaceOnUse">
<stop stop-color="#F19C49"/>
<stop offset="1" stop-color="#D45F32"/>
</linearGradient>
</defs>
</svg>
