<svg width="24" height="24" viewBox="0 0 24 24" fill="none" xmlns="http://www.w3.org/2000/svg">
<path d="M18.7507 15.7499V5.99995C18.7507 5.80104 18.6717 5.61027 18.531 5.46962C18.3904 5.32897 18.1996 5.24995 18.0007 5.24995H8.2507C8.05179 5.24995 7.86102 5.32897 7.72037 5.46962C7.57972 5.61027 7.5007 5.80104 7.5007 5.99995C7.5007 6.19886 7.57972 6.38963 7.72037 6.53028C7.86102 6.67093 8.05179 6.74995 8.2507 6.74995H16.1904L5.47008 17.4693C5.32935 17.6101 5.25029 17.8009 5.25029 17.9999C5.25029 18.199 5.32935 18.3898 5.47008 18.5306C5.61081 18.6713 5.80168 18.7504 6.0007 18.7504C6.19973 18.7504 6.3906 18.6713 6.53133 18.5306L17.2507 7.81026V15.7499C17.2507 15.9489 17.3297 16.1396 17.4704 16.2803C17.611 16.4209 17.8018 16.4999 18.0007 16.4999C18.1996 16.4999 18.3904 16.4209 18.531 16.2803C18.6717 16.1396 18.7507 15.9489 18.7507 15.7499Z" fill="white"/>
</svg>
