<svg width="24" height="24" viewBox="0 0 24 24" fill="none" xmlns="http://www.w3.org/2000/svg">
<path d="M18.7504 15.7501V6.00007C18.7504 5.80116 18.6714 5.61039 18.5307 5.46974C18.3901 5.32909 18.1993 5.25007 18.0004 5.25007H8.25042C8.0515 5.25007 7.86074 5.32909 7.72009 5.46974C7.57943 5.61039 7.50042 5.80116 7.50042 6.00007C7.50042 6.19898 7.57943 6.38975 7.72009 6.5304C7.86074 6.67105 8.0515 6.75007 8.25042 6.75007H16.1901L5.46979 17.4694C5.32906 17.6102 5.25 17.801 5.25 18.0001C5.25 18.1991 5.32906 18.39 5.46979 18.5307C5.61052 18.6714 5.80139 18.7505 6.00042 18.7505C6.19944 18.7505 6.39031 18.6714 6.53104 18.5307L17.2504 7.81038V15.7501C17.2504 15.949 17.3294 16.1397 17.4701 16.2804C17.6107 16.4211 17.8015 16.5001 18.0004 16.5001C18.1993 16.5001 18.3901 16.4211 18.5307 16.2804C18.6714 16.1397 18.7504 15.949 18.7504 15.7501Z" fill="white"/>
</svg>
