<svg width="24" height="24" viewBox="0 0 24 24" fill="none" xmlns="http://www.w3.org/2000/svg">
<path d="M18.7507 15.7499V5.99995C18.7507 5.80104 18.6717 5.61027 18.531 5.46962C18.3904 5.32897 18.1996 5.24995 18.0007 5.24995H8.25069C8.05178 5.24995 7.86101 5.32897 7.72036 5.46962C7.57971 5.61027 7.50069 5.80104 7.50069 5.99995C7.50069 6.19886 7.57971 6.38963 7.72036 6.53028C7.86101 6.67093 8.05178 6.74995 8.25069 6.74995H16.1904L5.47007 17.4693C5.32934 17.6101 5.25027 17.8009 5.25027 17.9999C5.25027 18.199 5.32934 18.3898 5.47007 18.5306C5.6108 18.6713 5.80167 18.7504 6.00069 18.7504C6.19971 18.7504 6.39059 18.6713 6.53132 18.5306L17.2507 7.81026V15.7499C17.2507 15.9489 17.3297 16.1396 17.4704 16.2803C17.611 16.4209 17.8018 16.4999 18.0007 16.4999C18.1996 16.4999 18.3904 16.4209 18.531 16.2803C18.6717 16.1396 18.7507 15.9489 18.7507 15.7499Z" fill="white"/>
</svg>
