<svg width="24" height="24" viewBox="0 0 24 24" fill="none" xmlns="http://www.w3.org/2000/svg">
<path d="M18.75 15.7499V5.99995C18.75 5.80104 18.671 5.61027 18.5303 5.46962C18.3897 5.32897 18.1989 5.24995 18 5.24995H8.25C8.05109 5.24995 7.86032 5.32897 7.71967 5.46962C7.57902 5.61027 7.5 5.80104 7.5 5.99995C7.5 6.19886 7.57902 6.38963 7.71967 6.53028C7.86032 6.67093 8.05109 6.74995 8.25 6.74995H16.1897L5.46938 17.4693C5.32865 17.6101 5.24958 17.8009 5.24958 17.9999C5.24958 18.199 5.32865 18.3898 5.46938 18.5306C5.61011 18.6713 5.80098 18.7504 6 18.7504C6.19902 18.7504 6.3899 18.6713 6.53063 18.5306L17.25 7.81026V15.7499C17.25 15.9489 17.329 16.1396 17.4697 16.2803C17.6103 16.4209 17.8011 16.4999 18 16.4999C18.1989 16.4999 18.3897 16.4209 18.5303 16.2803C18.671 16.1396 18.75 15.9489 18.75 15.7499Z" fill="white"/>
</svg>
