<svg width="80" height="80" viewBox="0 0 80 80" fill="none" xmlns="http://www.w3.org/2000/svg">
<path d="M66.875 57.75C60.875 57.75 54.75 57.75 48.75 57.75C47.875 57.75 46.875 57.75 46 57.75V51.375H50.5C55.125 51.375 59 48.125 59.875 43.75C60.5 43.75 61 43.75 61.625 43.75C64.875 43.75 64.875 38.75 61.625 38.75C61.125 38.75 60.625 38.75 60.125 38.75H19.875C19.375 38.75 18.875 38.75 18.375 38.75C15.125 38.75 15.125 43.75 18.375 43.75C19 43.75 19.5 43.75 20.125 43.75C21 48.125 24.875 51.375 29.5 51.375H34V57.75C29.25 57.75 24.5 57.75 19.875 57.75C17.625 57.75 15.375 57.75 13.125 57.75C9.875 57.75 9.875 62.75 13.125 62.75C14 62.75 14.875 62.75 15.75 62.75C16.625 68.125 21.25 72.25 27 72.25H53C58.625 72.25 63.25 68.125 64.25 62.75C65.125 62.75 66 62.75 66.875 62.75C70.125 62.75 70.125 57.75 66.875 57.75ZM25.375 43.75C35.125 43.75 44.875 43.75 54.625 43.75C53.875 45.25 52.25 46.375 50.5 46.375H29.5C27.75 46.375 26.125 45.25 25.375 43.75ZM39 51.375H41V57.75C40.375 57.75 39.625 57.75 39 57.75V51.375ZM53 67.25H27C24.125 67.25 21.75 65.375 20.875 62.75H59.125C58.25 65.375 55.875 67.25 53 67.25Z" fill="url(#paint0_linear_42_410)"/>
<path d="M19.875 15.8749C21.5 14.3749 23.625 13.3749 25.875 13.1249C28 12.8749 30 13.2499 31.75 14.2499C33.125 14.9999 34.375 15.9999 35.25 17.2499C30.75 15.2499 25.625 16.1249 21.875 19.3749C20.875 20.2499 21 21.9999 21.875 22.8749C22.875 23.8749 24.375 23.7499 25.375 22.8749C25.375 22.8749 25.625 22.6249 25.75 22.6249C25.875 22.4999 26.125 22.3749 26.25 22.2499C26.625 21.9999 26.875 21.8749 27.25 21.7499C27.375 21.7499 27.625 21.6249 27.625 21.6249C27.875 21.4999 28.125 21.4999 28.375 21.3749C28.625 21.3749 28.75 21.2499 29 21.2499H29.125H29.25C29.75 21.2499 30.25 21.2499 30.75 21.2499C30.75 21.2499 31 21.2499 31.125 21.2499C31.25 21.2499 31.375 21.2499 31.375 21.2499C31.75 21.3749 32.25 21.4999 32.625 21.6249H32.75C33 21.7499 33.125 21.7499 33.375 21.8749C33.75 21.9999 34 22.2499 34.375 22.4999C34.375 22.4999 34.375 22.4999 34.5 22.4999C34.625 22.6249 34.875 22.7499 35 22.8749C35.25 23.1249 35.5 23.3749 35.75 23.7499C35.75 23.7499 35.75 23.7499 35.875 23.8749C35.875 23.8749 35.875 23.8749 35.875 23.9999C36 24.1249 36.125 24.2499 36.125 24.4999C36.125 24.6249 36.25 24.6249 36.25 24.7499C33.25 23.7499 30 24.4999 27.625 26.6249C26.625 27.4999 26.625 29.2499 27.625 30.1249C28.625 31.1249 30.125 30.9999 31.125 30.1249L31.25 29.9999C31.375 29.8749 31.5 29.8749 31.5 29.8749C31.5 29.8749 32 29.6249 32.125 29.4999C32.125 29.4999 32.125 29.4999 32.25 29.4999C32.375 29.4999 32.5 29.3749 32.75 29.3749C32.875 29.3749 33 29.3749 33.125 29.2499C33.375 29.2499 33.75 29.2499 34 29.2499H34.125C34.375 29.2499 34.625 29.3749 34.875 29.4999C35 29.4999 35 29.6249 35.125 29.6249C35.375 29.7499 35.5 29.8749 35.75 29.9999C35.875 29.9999 35.875 30.1249 36 30.1249C36.125 30.2499 36.375 30.4999 36.5 30.6249C36.5 30.7499 36.625 30.7499 36.625 30.8749C36.75 31.1249 36.875 31.2499 37 31.4999C37 31.6249 37.125 31.7499 37.125 31.7499C37.125 31.8749 37.125 31.9999 37.25 32.1249C37.25 31.9999 37.25 32.2499 37.25 32.3749C37.25 32.4999 37.25 32.6249 37.25 32.7499C37.25 33.9999 38.375 35.2499 39.75 35.2499C41.125 35.2499 42.25 34.1249 42.25 32.7499C42.25 32.4999 42.25 32.2499 42.25 31.9999C42.25 31.8749 42.25 31.8749 42.25 31.7499C42.25 31.6249 42.25 31.4999 42.375 31.3749C42.375 31.2499 42.5 31.1249 42.5 30.9999C42.5 30.8749 42.625 30.4999 42.5 30.8749C42.375 31.2499 42.5 30.8749 42.625 30.7499C42.75 30.6249 42.75 30.4999 42.875 30.3749C42.875 30.3749 42.875 30.2499 43 30.2499L43.125 30.1249C43.25 29.9999 43.5 29.8749 43.625 29.6249C43.75 29.6249 43.75 29.4999 43.875 29.4999C44 29.4999 44.125 29.3749 44.125 29.3749H44.25C44.375 29.3749 44.5 29.2499 44.625 29.2499C44.75 29.2499 44.75 29.2499 44.875 29.2499C45 29.2499 45.375 29.2499 45.5 29.2499C45.625 29.2499 45.75 29.2499 45.875 29.2499H46C46.125 29.2499 46.25 29.2499 46.375 29.3749C46.5 29.3749 46.625 29.3749 46.625 29.4999C46.625 29.4999 46.625 29.4999 46.5 29.4999C46.5 29.4999 46.625 29.4999 46.625 29.6249C46.625 29.6249 46.75 29.6249 46.75 29.7499C46.875 29.7499 47 29.8749 47 29.8749C47.125 29.8749 47.125 29.9999 47.25 29.9999C47.375 30.1249 47.625 30.3749 47.75 30.4999C48.625 31.4999 50.375 31.4999 51.25 30.4999C52.25 29.4999 52.25 27.9999 51.25 26.9999C49.25 24.8749 46 23.8749 43.125 24.7499H43V24.6249C43.125 24.3749 43.25 24.2499 43.375 23.9999C43.375 23.9999 43.625 23.7499 43.625 23.6249C43.75 23.4999 43.875 23.3749 43.875 23.2499C44.125 22.9999 44.375 22.7499 44.625 22.4999C44.625 22.4999 44.875 22.2499 45 22.2499C45.125 22.1249 45.25 21.9999 45.5 21.9999C45.625 21.8749 45.75 21.8749 46 21.7499L46.25 21.6249C46.375 21.6249 46.5 21.4999 46.5 21.4999C46.75 21.3749 46.875 21.3749 47.125 21.3749C47.25 21.3749 47.5 21.2499 47.625 21.2499C47.75 21.2499 47.75 21.2499 47.75 21.2499C48 21.2499 48.375 21.2499 48.625 21.2499C48.875 21.2499 49 21.2499 49.25 21.2499C49.25 21.2499 49.5 21.2499 49.625 21.2499C49.75 21.2499 49.875 21.2499 49.875 21.2499C50 21.2499 50.25 21.3749 50.375 21.3749C50.5 21.3749 50.75 21.4999 50.875 21.4999C50.875 21.4999 51.125 21.6249 51.25 21.6249C51.5 21.7499 51.75 21.8749 52 21.9999C52.125 22.1249 52.375 22.2499 52.5 22.3749C52.875 22.6249 53.125 22.9999 53.375 23.2499C54.25 24.2499 56 24.2499 56.875 23.2499C57.875 22.2499 57.875 20.7499 56.875 19.7499C54 16.6249 49.5 15.3749 45.5 16.4999C45 16.6249 44.5 16.8749 44.125 16.9999C44.375 16.6249 44.625 16.3749 44.875 16.1249C46.25 14.7499 47.75 13.7499 49.5 13.2499C51.125 12.8749 52.75 12.8749 54.375 13.2499C56.125 13.7499 57.625 14.7499 59 16.1249C61.25 18.4999 64.75 14.9999 62.5 12.6249C58.875 8.62494 53.125 6.99994 47.875 8.49994C44.25 9.49994 41.375 11.8749 39.5 14.8749C38.125 12.8749 36.25 11.1249 33.875 9.99994C28 6.99994 21 8.12494 16.125 12.4999C15.125 13.3749 15.25 15.1249 16.125 15.9999C17.375 16.8749 18.875 16.7499 19.875 15.8749ZM44.75 28.9999C44.875 28.9999 44.875 28.9999 44.75 28.9999C45 28.9999 45.25 28.9999 44.75 28.9999ZM52.625 22.1249C52.625 22.2499 52.625 22.2499 52.625 22.1249V22.1249Z" fill="url(#paint1_linear_42_410)"/>
<defs>
<linearGradient id="paint0_linear_42_410" x1="40" y1="38.75" x2="40" y2="72.25" gradientUnits="userSpaceOnUse">
<stop stop-color="#F19C49"/>
<stop offset="1" stop-color="#EF7828"/>
</linearGradient>
<linearGradient id="paint1_linear_42_410" x1="39.3232" y1="7.9491" x2="39.3232" y2="35.2499" gradientUnits="userSpaceOnUse">
<stop stop-color="#F19C49"/>
<stop offset="1" stop-color="#EF7828"/>
</linearGradient>
</defs>
</svg>
