<svg width="26" height="20" viewBox="0 0 26 20" fill="none" xmlns="http://www.w3.org/2000/svg">
<path fill-rule="evenodd" clip-rule="evenodd" d="M23.5942 0H2.02494C1.09429 0 0.339846 0.764393 0.339846 1.70732C0.339846 2.65025 1.09429 3.41464 2.02494 3.41464H23.5942C24.5249 3.41464 25.2793 2.65025 25.2793 1.70732C25.2793 0.764393 24.5249 0 23.5942 0Z" fill="white"/>
<path fill-rule="evenodd" clip-rule="evenodd" d="M24.0496 8.29272H8.3099C7.63078 8.29272 7.08024 9.05712 7.08024 10C7.08024 10.943 7.63078 11.7074 8.3099 11.7074H24.0496C24.7288 11.7074 25.2793 10.943 25.2793 10C25.2793 9.05712 24.7288 8.29272 24.0496 8.29272Z" fill="white"/>
<path fill-rule="evenodd" clip-rule="evenodd" d="M23.5942 16.5854H2.02494C1.09429 16.5854 0.339846 17.3498 0.339846 18.2928C0.339846 19.2357 1.09429 20.0001 2.02494 20.0001H23.5942C24.5249 20.0001 25.2793 19.2357 25.2793 18.2928C25.2793 17.3498 24.5249 16.5854 23.5942 16.5854Z" fill="white"/>
</svg>
