<svg width="17" height="21" viewBox="0 0 17 21" fill="none" xmlns="http://www.w3.org/2000/svg">
<path fill-rule="evenodd" clip-rule="evenodd" d="M2.817 13.1687C4.28722 12.6758 6.21548 12.5317 8.17048 12.5317C10.1377 12.5317 12.0668 12.6815 13.5354 13.1809C14.275 13.4325 14.9707 13.7965 15.4901 14.3409C16.0326 14.9095 16.34 15.6323 16.34 16.4794C16.34 17.3286 16.0297 18.0514 15.4839 18.618C14.9618 19.16 14.2637 19.5204 13.5236 19.7686C12.0536 20.2617 10.1256 20.406 8.17048 20.406C6.20337 20.406 4.274 20.2566 2.80516 19.7572C2.06549 19.5058 1.36967 19.1418 0.850081 18.5973C0.307439 18.0286 0 17.3057 0 16.4584C0 15.6089 0.310389 14.886 0.856324 14.3193C1.37853 13.7773 2.07682 13.4169 2.817 13.1687ZM2.29668 15.7069C2.10247 15.9085 2 16.1369 2 16.4584C2 16.782 2.1028 17.0131 2.29703 17.2166C2.51432 17.4443 2.88201 17.6709 3.44889 17.8636C4.59314 18.2526 6.24901 18.406 8.17048 18.406C10.083 18.406 11.7397 18.2575 12.8876 17.8725C13.4565 17.6816 13.8255 17.4567 14.0434 17.2305C14.2376 17.0289 14.34 16.8006 14.34 16.4794C14.34 16.156 14.2373 15.9251 14.0431 15.7215C13.8258 15.4938 13.4582 15.2672 12.8915 15.0744C11.7475 14.6853 10.0918 14.5317 8.17048 14.5317C6.25785 14.5317 4.60088 14.6801 3.45276 15.065C2.88377 15.2558 2.51463 15.4807 2.29668 15.7069Z" fill="white"/>
<path fill-rule="evenodd" clip-rule="evenodd" d="M2.57425 5.59354C2.57516 2.50367 5.08089 0 8.17044 0C11.2608 0 13.7657 2.50486 13.7657 5.59524C13.7657 8.68535 11.2611 11.1914 8.17044 11.1914H8.13806L8.13467 11.1914C5.05413 11.181 2.56472 8.67433 2.57425 5.59354ZM2.57425 5.59354C2.57425 5.59298 2.57425 5.59241 2.57425 5.59185L3.57425 5.59524H2.57425C2.57425 5.59467 2.57425 5.59411 2.57425 5.59354ZM8.17044 2C6.18436 2 4.57425 3.6097 4.57425 5.59524V5.59863H4.57424C4.56754 7.57558 6.16454 9.18387 8.13986 9.19143H8.17044C10.156 9.19143 11.7657 7.58132 11.7657 5.59524C11.7657 3.60943 10.1562 2 8.17044 2Z" fill="white"/>
</svg>
