<svg width="19" height="16" viewBox="0 0 19 16" fill="none" xmlns="http://www.w3.org/2000/svg">
<path d="M7.90212 0.815747L0.564529 7.23621C0.414833 7.36719 0.323301 7.55228 0.310071 7.75075C0.29684 7.94922 0.362995 8.14482 0.493981 8.29452L6.91444 15.6321C7.04543 15.7818 7.23051 15.8733 7.42898 15.8866C7.62746 15.8998 7.82305 15.8336 7.97275 15.7027C8.12245 15.5717 8.21398 15.3866 8.22721 15.1881C8.24044 14.9896 8.17428 14.794 8.0433 14.6443L2.81495 8.66915L17.9415 9.67817C18.1401 9.69141 18.3358 9.62521 18.4855 9.49416C18.6353 9.3631 18.7269 9.17791 18.7401 8.97933C18.7534 8.78074 18.6872 8.58504 18.5561 8.43526C18.4251 8.28548 18.2399 8.19389 18.0413 8.18066L2.91469 7.17296L8.88988 1.94461C9.03958 1.81362 9.13111 1.62853 9.14434 1.43006C9.15757 1.23159 9.09142 1.03599 8.96043 0.886295C8.82944 0.736599 8.64436 0.645068 8.44589 0.631837C8.24741 0.618607 8.05182 0.684761 7.90212 0.815747Z" fill="white"/>
</svg>
