<svg width="19" height="17" viewBox="0 0 19 17" fill="none" xmlns="http://www.w3.org/2000/svg">
<path d="M12.0224 1.07536L18.5071 8.35619C18.6394 8.50473 18.7073 8.69974 18.6958 8.89832C18.6843 9.0969 18.5944 9.28278 18.4459 9.41508L11.165 15.8998C11.0165 16.0321 10.8215 16.1 10.6229 16.0885C10.4243 16.077 10.2385 15.9871 10.1062 15.8386C9.97386 15.6901 9.90599 15.4951 9.91747 15.2965C9.92895 15.0979 10.0189 14.912 10.1674 14.7797L16.0964 9.499L0.961468 8.6244C0.762777 8.61291 0.576788 8.52296 0.444417 8.37434C0.312046 8.22572 0.244136 8.0306 0.255627 7.83191C0.267117 7.63322 0.357067 7.44723 0.505688 7.31486C0.654308 7.18249 0.849426 7.11458 1.04812 7.12607L16.1829 8.00199L10.9022 2.07302C10.7699 1.92448 10.7021 1.72947 10.7135 1.53089C10.725 1.33231 10.8149 1.14642 10.9635 1.01413C11.112 0.881829 11.307 0.813957 11.5056 0.82544C11.7042 0.836924 11.8901 0.926824 12.0224 1.07536Z" fill="white"/>
</svg>
