<svg width="19" height="16" viewBox="0 0 19 16" fill="none" xmlns="http://www.w3.org/2000/svg">
<path d="M7.90261 0.815747L0.565018 7.23621C0.415321 7.36719 0.32379 7.55228 0.310559 7.75075C0.297329 7.94922 0.363483 8.14482 0.494469 8.29452L6.91493 15.6321C7.04591 15.7818 7.231 15.8733 7.42947 15.8866C7.62794 15.8998 7.82354 15.8336 7.97324 15.7027C8.12294 15.5717 8.21447 15.3866 8.2277 15.1881C8.24093 14.9896 8.17477 14.794 8.04379 14.6443L2.81544 8.66915L17.942 9.67817C18.1406 9.69141 18.3363 9.62521 18.486 9.49416C18.6358 9.3631 18.7274 9.17791 18.7406 8.97933C18.7539 8.78074 18.6877 8.58504 18.5566 8.43526C18.4256 8.28548 18.2404 8.19389 18.0418 8.18066L2.91517 7.17296L8.89037 1.94461C9.04007 1.81362 9.1316 1.62853 9.14483 1.43006C9.15806 1.23159 9.0919 1.03599 8.96092 0.886295C8.82993 0.736599 8.64485 0.645068 8.44637 0.631837C8.2479 0.618607 8.0523 0.684761 7.90261 0.815747Z" fill="white"/>
</svg>
