<svg width="19" height="17" viewBox="0 0 19 17" fill="none" xmlns="http://www.w3.org/2000/svg">
<path d="M12.0216 1.07524L18.5063 8.35607C18.6386 8.50461 18.7065 8.69962 18.695 8.8982C18.6835 9.09678 18.5936 9.28266 18.4451 9.41496L11.1643 15.8997C11.0157 16.032 10.8207 16.0999 10.6221 16.0884C10.4235 16.0769 10.2377 15.987 10.1054 15.8385C9.97307 15.6899 9.90519 15.4949 9.91668 15.2964C9.92816 15.0978 10.0181 14.9119 10.1666 14.7796L16.0956 9.49888L0.960674 8.62428C0.761983 8.61279 0.575994 8.52284 0.443624 8.37422C0.311253 8.2256 0.243343 8.03048 0.254833 7.83179C0.266324 7.6331 0.356273 7.44711 0.504894 7.31474C0.653515 7.18237 0.848633 7.11446 1.04732 7.12595L16.1821 8.00187L10.9014 2.07289C10.7691 1.92436 10.7013 1.72935 10.7128 1.53077C10.7242 1.33219 10.8141 1.1463 10.9627 1.014C11.1112 0.881707 11.3062 0.813835 11.5048 0.825318C11.7034 0.836802 11.8893 0.926702 12.0216 1.07524Z" fill="white"/>
</svg>
